<svg width="996" height="148" viewBox="0 0 996 148" fill="none" xmlns="http://www.w3.org/2000/svg">
<g clip-path="url(#clip0_146_51)">
<path d="M292.852 147.642C283.902 147.642 275.808 145.669 268.571 141.722C261.464 137.645 255.806 131.658 251.594 123.765C247.515 115.872 245.474 106.005 245.474 94.1649C245.474 82.3249 247.579 72.4583 251.791 64.5649C256.134 56.6716 261.859 50.7516 268.965 46.8049C276.203 42.8583 284.166 40.8849 292.852 40.8849C303.117 40.8849 312.197 43.1214 320.093 47.5943C327.99 52.0671 334.24 58.3161 338.847 66.3409C343.454 74.2343 345.756 83.5089 345.756 94.1649C345.756 104.821 343.454 114.162 338.847 122.186C334.24 130.211 327.99 136.461 320.093 140.933C312.197 145.405 303.117 147.642 292.852 147.642ZM237.381 146.458V0.0369263H256.332V69.6956L254.357 93.9676L255.542 118.24V146.458H237.381ZM291.272 131.066C297.984 131.066 303.973 129.554 309.236 126.528C314.632 123.501 318.843 119.226 321.87 113.701C325.029 108.044 326.608 101.532 326.608 94.1649C326.608 86.6663 325.029 80.2201 321.87 74.8263C318.843 69.3009 314.632 65.0254 309.236 61.9996C303.973 58.9738 297.984 57.4609 291.272 57.4609C284.692 57.4609 278.705 58.9738 273.308 61.9996C268.045 65.0254 263.833 69.3009 260.674 74.8263C257.647 80.2201 256.134 86.6663 256.134 94.1649C256.134 101.532 257.647 108.044 260.674 113.701C263.833 119.226 268.045 123.501 273.308 126.528C278.705 129.554 284.692 131.066 291.272 131.066ZM415.962 147.642C407.012 147.642 399.116 145.997 392.273 142.709C385.561 139.421 380.297 134.421 376.48 127.712C372.796 120.871 370.953 112.32 370.953 102.058V41.8716H389.904V99.8876C389.904 110.149 392.339 117.845 397.208 122.976C402.209 128.106 409.183 130.672 418.133 130.672C424.714 130.672 430.438 129.357 435.307 126.725C440.176 123.962 443.927 120.016 446.559 114.885C449.192 109.623 450.508 103.308 450.508 95.9409V41.8716H469.458V146.458H451.495V118.24L454.456 125.738C451.033 132.711 445.901 138.104 439.058 141.92C432.215 145.735 424.516 147.642 415.962 147.642ZM535.541 147.642C526.856 147.642 518.565 146.458 510.668 144.09C502.903 141.722 496.784 138.829 492.31 135.408L500.206 120.41C504.68 123.437 510.207 126.002 516.788 128.106C523.369 130.211 530.08 131.264 536.923 131.264C545.74 131.264 552.057 130.013 555.874 127.514C559.822 125.015 561.796 121.528 561.796 117.056C561.796 113.767 560.612 111.202 558.243 109.36C555.874 107.518 552.716 106.136 548.768 105.216C544.951 104.295 540.674 103.505 535.936 102.848C531.198 102.058 526.461 101.137 521.723 100.085C516.985 98.9009 512.642 97.3223 508.694 95.3489C504.746 93.2441 501.588 90.4156 499.219 86.8636C496.85 83.1801 495.666 78.3124 495.666 72.2609C495.666 65.9463 497.442 60.4209 500.995 55.6849C504.549 50.9489 509.55 47.3311 515.998 44.8316C522.579 42.2004 530.343 40.8849 539.292 40.8849C546.135 40.8849 553.044 41.7401 560.02 43.4503C567.126 45.0289 572.917 47.3311 577.391 50.3569L569.298 65.3543C564.56 62.1969 559.625 60.0263 554.492 58.8423C549.36 57.6583 544.227 57.0663 539.095 57.0663C530.804 57.0663 524.618 58.4476 520.539 61.2103C516.459 63.8414 514.419 67.2618 514.419 71.4716C514.419 75.0236 515.603 77.7863 517.972 79.7596C520.472 81.6014 523.631 83.0484 527.448 84.1009C531.396 85.1534 535.739 86.0743 540.477 86.8636C545.214 87.5214 549.952 88.4423 554.69 89.6263C559.427 90.6788 563.704 92.1916 567.521 94.1649C571.469 96.1383 574.628 98.9009 576.997 102.453C579.497 106.005 580.747 110.741 580.747 116.661C580.747 122.976 578.904 128.435 575.22 133.04C571.536 137.645 566.337 141.261 559.625 143.893C552.913 146.392 544.886 147.642 535.541 147.642ZM665.232 38.7143C673.654 38.7143 681.156 40.4244 687.736 43.8449C694.448 47.1338 699.712 52.2644 703.529 59.2369C707.346 66.0778 709.254 74.8921 709.254 85.6796V146.458H678.458V90.4156C678.458 81.8644 676.551 75.5498 672.734 71.4716C669.049 67.3934 663.784 65.3543 656.941 65.3543C652.072 65.3543 647.663 66.4068 643.715 68.5116C639.898 70.4849 636.872 73.5764 634.634 77.7863C632.529 81.9961 631.476 87.3898 631.476 93.9676V146.458H600.681V0.0369263H631.476V69.6956L624.567 60.8156C628.384 53.7116 633.845 48.2521 640.951 44.4369C648.058 40.6218 656.151 38.7143 665.232 38.7143ZM781.979 148.037C773.162 148.037 765.266 146.327 758.29 142.906C751.447 139.485 746.117 134.29 742.3 127.317C738.483 120.213 736.576 111.202 736.576 100.282V40.2929H767.371V95.7436C767.371 104.558 769.214 111.069 772.898 115.28C776.715 119.357 782.045 121.397 788.888 121.397C793.626 121.397 797.838 120.41 801.522 118.437C805.206 116.333 808.103 113.175 810.208 108.965C812.313 104.624 813.366 99.2298 813.366 92.7836V40.2929H844.162V146.458H814.946V117.253L820.276 125.738C816.722 133.106 811.459 138.696 804.483 142.512C797.64 146.195 790.139 148.037 781.979 148.037ZM935.466 148.037C926.122 148.037 918.095 146.064 911.383 142.117C904.671 138.17 899.539 132.184 895.985 124.16C892.432 116.003 890.655 105.742 890.655 93.3756C890.655 80.8778 892.498 70.6164 896.183 62.5916C900 54.5667 905.263 48.5809 911.975 44.6343C918.687 40.6876 926.517 38.7143 935.466 38.7143C945.468 38.7143 954.417 40.9508 962.313 45.4236C970.341 49.8964 976.658 56.2111 981.264 64.3676C986.002 72.5241 988.371 82.1934 988.371 93.3756C988.371 104.426 986.002 114.029 981.264 122.186C976.658 130.343 970.341 136.723 962.313 141.328C954.417 145.8 945.468 148.037 935.466 148.037ZM872.691 146.458V0.0369263H903.487V61.8023L901.513 93.1783L902.105 124.752V146.458H872.691ZM930.136 122.778C935.269 122.778 939.809 121.594 943.757 119.226C947.837 116.858 951.061 113.504 953.43 109.162C955.93 104.689 957.181 99.4271 957.181 93.3756C957.181 87.1924 955.93 81.9303 953.43 77.5889C951.061 73.2476 947.837 69.8929 943.757 67.5249C939.809 65.1569 935.269 63.9729 930.136 63.9729C925.004 63.9729 920.397 65.1569 916.318 67.5249C912.239 69.8929 909.014 73.2476 906.645 77.5889C904.276 81.9303 903.092 87.1924 903.092 93.3756C903.092 99.4271 904.276 104.689 906.645 109.162C909.014 113.504 912.239 116.858 916.318 119.226C920.397 121.594 925.004 122.778 930.136 122.778Z" fill="white"/>
<path d="M0 83.6907H165.253C182.592 83.6907 196.648 97.7418 196.648 115.076C196.648 132.407 182.592 146.459 165.253 146.459H0V83.6907Z" fill="white"/>
<path d="M0 0H165.253C182.592 0 196.648 14.051 196.648 31.3839C196.648 48.7168 182.592 62.7679 165.253 62.7679H0V0Z" fill="white"/>
</g>
<defs>
<clipPath id="clip0_146_51">
<rect width="996" height="148" fill="white"/>
</clipPath>
</defs>
</svg>
