<svg width="905" height="178" viewBox="0 0 905 178" fill="none" xmlns="http://www.w3.org/2000/svg">
<path d="M611.167 166.1C602.194 166.1 594.292 164.225 587.462 160.475C580.632 156.591 575.275 151.033 571.391 143.801C567.507 136.569 565.431 127.73 565.163 117.283H568.98V162.484H543.467V15.834H575.61V90.3641L567.976 100.007C568.378 88.8909 570.453 79.583 574.203 72.0831C578.087 64.4493 583.377 58.7574 590.074 55.0075C596.77 51.1236 604.404 49.1817 612.975 49.1817C620.475 49.1817 627.238 50.5879 633.265 53.4004C639.426 56.0789 644.649 59.9628 648.934 65.052C653.22 70.0073 656.501 75.9001 658.778 82.7303C661.189 89.5606 662.394 96.9935 662.394 105.029V109.449C662.394 117.484 661.189 124.917 658.778 131.747C656.501 138.578 653.086 144.604 648.533 149.828C644.113 154.917 638.756 158.935 632.462 161.881C626.167 164.693 619.069 166.1 611.167 166.1ZM602.73 139.18C608.221 139.18 612.975 137.841 616.993 135.163C621.145 132.484 624.359 128.734 626.636 123.913C628.912 118.957 630.051 113.399 630.051 107.239C630.051 100.944 628.912 95.4533 626.636 90.7659C624.359 86.0785 621.145 82.4625 616.993 79.9179C612.975 77.2393 608.221 75.9001 602.73 75.9001C597.908 75.9001 593.355 77.0384 589.069 79.3152C584.784 81.5919 581.302 84.8731 578.623 89.1588C576.078 93.3105 574.806 98.3997 574.806 104.426V111.859C574.806 117.618 576.145 122.573 578.824 126.725C581.636 130.743 585.185 133.823 589.471 135.966C593.757 138.109 598.176 139.18 602.73 139.18Z" fill="white"/>
<path d="M721.883 165.899C709.16 165.899 699.383 161.814 692.553 153.644C685.722 145.341 682.307 132.886 682.307 116.279V52.3959H714.45V117.886C714.45 123.779 716.124 128.466 719.472 131.948C722.82 135.43 727.307 137.171 732.932 137.171C738.69 137.171 743.378 135.363 746.994 131.747C750.61 128.131 752.418 123.243 752.418 117.082V52.3959H784.56V162.484H759.047V116.078H761.257C761.257 127.194 759.784 136.502 756.837 144.002C754.025 151.368 749.806 156.859 744.181 160.475C738.556 164.091 731.592 165.899 723.289 165.899H721.883Z" fill="white"/>
<path d="M855.983 165.899C840.314 165.899 828.059 162.684 819.22 156.256C810.381 149.828 805.693 140.787 805.158 129.136H833.684C834.22 132.618 836.296 135.765 839.912 138.578C843.662 141.256 849.22 142.595 856.586 142.595C862.21 142.595 866.831 141.658 870.447 139.783C874.197 137.774 876.072 134.962 876.072 131.346C876.072 128.131 874.666 125.587 871.853 123.712C869.041 121.703 864.018 120.297 856.786 119.493L848.148 118.69C834.889 117.35 824.912 113.667 818.216 107.641C811.653 101.614 808.372 93.9132 808.372 84.5383C808.372 76.7706 810.314 70.2751 814.198 65.052C818.082 59.8289 823.439 55.878 830.269 53.1995C837.233 50.521 845.135 49.1817 853.974 49.1817C868.17 49.1817 879.621 52.329 888.326 58.6235C897.031 64.7841 901.585 73.7572 901.987 85.5428H873.46C872.925 81.9267 871.05 78.9134 867.835 76.5027C864.621 73.9581 859.867 72.6858 853.572 72.6858C848.617 72.6858 844.666 73.6233 841.72 75.4983C838.773 77.3732 837.3 79.9178 837.3 83.1321C837.3 86.2124 838.572 88.5561 841.117 90.1632C843.662 91.7704 847.813 92.9087 853.572 93.5784L862.21 94.3819C875.737 95.8551 886.25 99.6051 893.75 105.632C901.25 111.658 905 119.761 905 129.939C905 137.305 902.991 143.734 898.973 149.225C894.956 154.582 889.264 158.734 881.898 161.68C874.532 164.492 865.893 165.899 855.983 165.899Z" fill="white"/>
<path d="M284.545 162.484L247.983 55.2089H268.072L303.83 162.484H284.545ZM289.366 162.484V147.216H312.669V162.484H289.366ZM298.607 162.484L329.745 55.2089H348.628L316.888 162.484H298.607Z" fill="white"/>
<path d="M437.962 162.484V130.342H434.747V93.1771C434.747 85.8111 432.806 80.2532 428.922 76.5032C425.172 72.7533 419.614 70.8783 412.248 70.8783C408.096 70.8783 403.81 70.9453 399.391 71.0792C394.971 71.2131 390.753 71.347 386.735 71.481C382.717 71.6149 379.235 71.8158 376.288 72.0836V55.2089C379.235 54.941 382.315 54.7401 385.529 54.6062C388.878 54.3384 392.293 54.2044 395.775 54.2044C399.257 54.0705 402.605 54.0035 405.819 54.0035C416.801 54.0035 425.774 55.3428 432.739 58.0213C439.703 60.5659 444.859 64.7846 448.207 70.6774C451.555 76.5702 453.229 84.5388 453.229 94.5833V162.484H437.962ZM402.806 165.297C394.77 165.297 387.806 163.957 381.913 161.279C376.155 158.466 371.668 154.449 368.454 149.225C365.373 144.002 363.833 137.708 363.833 130.342C363.833 122.708 365.507 116.346 368.856 111.257C372.338 106.168 377.36 102.351 383.922 99.8064C390.485 97.1279 398.386 95.7886 407.627 95.7886H436.756V110.253H406.824C399.056 110.253 393.096 112.128 388.945 115.878C384.793 119.628 382.717 124.449 382.717 130.342C382.717 136.234 384.793 140.989 388.945 144.605C393.096 148.221 399.056 150.029 406.824 150.029C411.377 150.029 415.73 149.225 419.882 147.618C424.033 145.877 427.448 143.065 430.127 139.181C432.939 135.163 434.48 129.672 434.747 122.708L439.971 130.342C439.301 137.976 437.426 144.404 434.346 149.627C431.399 154.716 427.248 158.6 421.89 161.279C416.667 163.957 410.306 165.297 402.806 165.297Z" fill="white"/>
<path d="M493.848 162.484V55.2089H513.134V162.484H493.848ZM477.375 70.4765V55.2089H513.134V70.4765H477.375ZM499.272 37.9324C494.987 37.9324 491.772 36.794 489.63 34.5172C487.621 32.2405 486.616 29.361 486.616 25.879C486.616 22.3969 487.621 19.5174 489.63 17.2407C491.772 14.9639 494.987 13.8256 499.272 13.8256C503.558 13.8256 506.705 14.9639 508.714 17.2407C510.857 19.5174 511.928 22.3969 511.928 25.879C511.928 29.361 510.857 32.2405 508.714 34.5172C506.705 36.794 503.558 37.9324 499.272 37.9324Z" fill="white"/>
<path d="M5.52386e-06 35.5358C6.50688e-06 16.4005 13.9989 0.888183 31.2674 0.888184C48.5359 0.888185 62.5348 16.4005 62.5348 35.5359L62.5348 143.063C62.5348 162.198 48.5359 177.711 31.2674 177.711C13.9989 177.711 -9.83018e-07 162.198 0 143.063L5.52386e-06 35.5358Z" fill="white"/>
<path d="M122.913 100.081C144.35 100.081 161.728 117.459 161.728 138.896C161.728 160.333 144.35 177.711 122.913 177.711C101.476 177.711 84.0985 160.333 84.0985 138.896C84.0985 117.459 101.476 100.081 122.913 100.081Z" fill="white"/>
<path d="M122.913 0.888192C144.35 0.888193 161.728 18.2661 161.728 39.7029C161.728 61.1397 144.35 78.5176 122.913 78.5176C101.476 78.5176 84.0985 61.1397 84.0985 39.7029C84.0985 18.2661 101.476 0.888192 122.913 0.888192Z" fill="white"/>
</svg>
